<svg width="31" height="30" viewBox="0 0 31 30" fill="none" xmlns="http://www.w3.org/2000/svg">
<path d="M12.8363 16.4364C12.7526 16.4364 10.9118 16.4364 10.075 16.4364C9.62873 16.4364 9.48927 16.2691 9.48927 15.8507C9.48927 14.735 9.48927 13.5915 9.48927 12.4758C9.48927 12.0295 9.65663 11.89 10.075 11.89H12.8363C12.8363 11.8064 12.8363 10.1886 12.8363 9.43555C12.8363 8.31987 13.0316 7.25997 13.5894 6.28375C14.1751 5.27964 15.0119 4.61023 16.0718 4.21974C16.7691 3.96872 17.4664 3.85715 18.2195 3.85715H20.9529C21.3434 3.85715 21.5107 4.0245 21.5107 4.41499V7.59468C21.5107 7.98516 21.3434 8.15252 20.9529 8.15252C20.1998 8.15252 19.4467 8.15252 18.6936 8.18041C17.9405 8.18041 17.5501 8.543 17.5501 9.32398C17.5222 10.1607 17.5501 10.9696 17.5501 11.8343H20.7855C21.2318 11.8343 21.3992 12.0016 21.3992 12.4479V15.8228C21.3992 16.2691 21.2597 16.4086 20.7855 16.4086C19.7814 16.4086 17.6337 16.4086 17.5501 16.4086V25.5013C17.5501 25.9755 17.4106 26.1429 16.9085 26.1429C15.7371 26.1429 14.5935 26.1429 13.422 26.1429C13.0037 26.1429 12.8363 25.9755 12.8363 25.5571C12.8363 22.6285 12.8363 16.5201 12.8363 16.4364Z" fill="#216B5E"/>
</svg>
