<svg width="160" height="47" viewBox="0 0 160 47" fill="none" xmlns="http://www.w3.org/2000/svg">
<g clip-path="url(#clip0_27_766)">
<path d="M18.1667 45.4167H21.6667V46.5833H16.6667V40.25H21.5833V41.4167H18.1667V42.8333H21.1667V44H18.1667V45.4167ZM34.75 44.0833L31.5 40.25H30.25V46.6667H31.75V42.8333L35 46.6667H36.25V40.25H34.75V44.0833ZM44.5 41.4167H46.5833V46.5833H48.0833V41.4167H50.1667V40.1667H44.5833V41.4167H44.5ZM59.8333 43.9167H62.8333V42.75H59.8333V41.3333H63.25V40.1667H58.3333V46.5833H63.3333V45.4167H59.8333V43.9167ZM76.25 44.5L77.75 46.5833H76.0833L74.8333 44.75H74.75H73.4167V46.5833H71.9167V40.25H74.75C75.3333 40.25 75.8333 40.3333 76.25 40.5C76.6667 40.75 77 41 77.25 41.3333C77.5 41.6667 77.5833 42.0833 77.5833 42.5833C77.5833 43.0833 77.5 43.5 77.25 43.8333C77 44.0833 76.6667 44.3333 76.25 44.5ZM76.0833 42.5C76.0833 42.1667 76 41.8333 75.75 41.6667C75.5 41.4167 75.1667 41.3333 74.75 41.3333H73.5V43.5833H74.75C75.25 43.5833 75.5 43.5 75.75 43.25C75.9167 43.0833 76.0833 42.8333 76.0833 42.5ZM91.4167 41.25C91.6667 41.5833 91.75 42 91.75 42.5C91.75 43 91.6667 43.4167 91.4167 43.75C91.1667 44.0833 90.8333 44.4167 90.4167 44.5833C90 44.75 89.5 44.8333 88.9167 44.8333H87.5833V46.5833H86.0833V40.25H88.9167C89.5 40.25 90 40.3333 90.4167 40.5C90.9167 40.6667 91.25 40.9167 91.4167 41.25ZM90.25 42.5C90.25 42.1667 90.1667 41.8333 89.9167 41.6667C89.6667 41.4167 89.3333 41.3333 88.9167 41.3333H87.6667V43.5833H88.9167C89.4167 43.5833 89.6667 43.5 89.9167 43.3333C90.1667 43.0833 90.25 42.8333 90.25 42.5ZM104.583 44.5L106.083 46.5833H104.417L103.167 44.75H103.083H101.75V46.5833H100.25V40.25H103.083C103.667 40.25 104.167 40.3333 104.583 40.5C105 40.75 105.333 41 105.583 41.3333C105.833 41.6667 105.917 42.0833 105.917 42.5833C105.917 43.0833 105.833 43.5 105.583 43.8333C105.333 44.0833 105 44.3333 104.583 44.5ZM104.417 42.5C104.417 42.1667 104.333 41.8333 104.083 41.6667C103.833 41.4167 103.5 41.3333 103.083 41.3333H101.833V43.5833H103.083C103.583 43.5833 103.833 43.5 104.083 43.25C104.25 43 104.417 42.8333 104.417 42.5ZM114.5 46.5833H116V40.25H114.5V46.5833ZM128.75 43.0833C128.417 43 128 42.8333 127.5 42.75C127 42.6667 126.667 42.5 126.417 42.4167C126.167 42.3333 126.083 42.1667 126.083 41.9167C126.083 41.6667 126.167 41.5833 126.417 41.4167C126.667 41.25 126.917 41.1667 127.333 41.1667C127.917 41.1667 128.583 41.3333 129.167 41.6667L129.667 40.5833C129.333 40.4167 129 40.25 128.583 40.1667C128.25 40.0833 127.833 40 127.333 40C126.75 40 126.25 40.0833 125.833 40.25C125.417 40.4167 125.083 40.6667 124.917 41C124.667 41.3333 124.583 41.6667 124.583 42C124.583 42.4167 124.667 42.75 124.917 43C125.167 43.25 125.417 43.4167 125.667 43.5833C125.917 43.75 126.417 43.8333 126.917 43.9167C127.25 44 127.5 44.0833 127.667 44.1667C127.917 44.25 128 44.3333 128.167 44.4167C128.25 44.5 128.417 44.6667 128.417 44.75C128.417 45 128.333 45.0833 128.083 45.25C127.833 45.3333 127.583 45.4167 127.167 45.4167C126.833 45.4167 126.417 45.3333 126 45.25C125.583 45.1667 125.25 45 125 44.75L124.5 45.8333C124.833 46.0833 125.167 46.25 125.667 46.3333C126.167 46.5 126.667 46.5833 127.167 46.5833C127.75 46.5833 128.25 46.5 128.667 46.3333C129.083 46.1667 129.417 45.9167 129.583 45.6667C129.833 45.3333 129.917 45 129.917 44.6667C129.917 44.25 129.833 43.9167 129.583 43.6667C129.333 43.4167 129 43.25 128.75 43.0833ZM139.833 45.4167V43.9167H142.833V42.75H139.833V41.3333H143.25V40.1667H138.333V46.5833H143.333V45.4167H139.833Z" fill="#216B5E"/>
<path fill-rule="evenodd" clip-rule="evenodd" d="M78 12.4167L93.25 26.6667H84.5833L76.6667 19.3333L73.8333 16.6667L70.3333 20.25V26.6667H64V0H70.3333V12.1667L72.3333 10.1667L82.1667 0H90.0833L78 12.4167ZM122.417 0H114.5L104.667 10.1667L102.667 12.1667V0H96.3333V26.5833H102.667V20.25L106.167 16.6667L109 19.3333L116.917 26.6667H125.583L110.333 12.4167L122.417 0ZM21.3333 13.9167H6.33333V0H0V26.5833H6.33333V20.25H21.3333V26.6667H27.6667V0H21.3333V13.9167ZM49 0L60.8333 26.5833H54.5L53.0833 23.4167H38.5833L37.1667 26.5833H30.8333L42.6667 0H49ZM50.3333 17.0833L45.8333 7.16667L41.4167 17.1667C41.4167 17.0833 50.3333 17.0833 50.3333 17.0833ZM160 13.3333C160 20.6667 154.083 26.6667 146.75 26.6667H138.833C131.5 26.6667 125.583 20.75 125.583 13.3333C125.583 5.91667 131.5 0 138.833 0H146.75C154.083 0 160 5.91667 160 13.3333ZM154.083 13.3333C154.083 9 150.583 5.58333 146.417 5.58333H139.333C135.083 5.58333 131.667 9.08333 131.667 13.3333C131.667 17.6667 135.167 21.0833 139.333 21.0833H146.417C150.583 21.0833 154.083 17.5833 154.083 13.3333Z" fill="#216B5E"/>
</g>
<defs>
<clipPath id="clip0_27_766">
<rect width="160" height="46.6667" fill="white"/>
</clipPath>
</defs>
</svg>
