<svg width="31" height="30" viewBox="0 0 31 30" fill="none" xmlns="http://www.w3.org/2000/svg">
<path d="M20.2976 5.40475H10.7024C8.06393 5.40475 5.90476 7.56298 5.90476 10.2024V19.7976C5.90476 22.4361 8.06393 24.5952 10.7024 24.5952H20.2976C22.9361 24.5952 25.0952 22.4361 25.0952 19.7976V10.2024C25.0952 7.56298 22.9361 5.40475 20.2976 5.40475ZM15.5 18.9979C13.2916 18.9979 11.5019 17.2074 11.5019 15C11.5019 12.7916 13.2916 11.0019 15.5 11.0019C17.7074 11.0019 19.4981 12.7916 19.4981 15C19.4981 17.2074 17.7074 18.9979 15.5 18.9979ZM20.6975 11.0019C20.0345 11.0019 19.4981 10.4648 19.4981 9.80249C19.4981 9.1402 20.0345 8.60309 20.6975 8.60309C21.3605 8.60309 21.8969 9.1402 21.8969 9.80249C21.8969 10.4648 21.3605 11.0019 20.6975 11.0019Z" fill="#216B5E"/>
</svg>
